<?xml version="1.0" standalone="no"?>
<!DOCTYPE svg PUBLIC "-//W3C//DTD SVG 20010904//EN"
 "http://www.w3.org/TR/2001/REC-SVG-20010904/DTD/svg10.dtd">
<svg version="1.0" xmlns="http://www.w3.org/2000/svg"
 width="1061.000000pt" height="1047.000000pt" viewBox="0 0 1061.000000 1047.000000"
 preserveAspectRatio="xMidYMid meet">
<metadata>
Created by potrace 1.15, written by Peter Selinger 2001-2017
</metadata>
<g transform="translate(0.000000,1047.000000) scale(0.100000,-0.100000)"
fill="#000000" stroke="none">
<path d="M4915 10183 c-404 -27 -976 -149 -1420 -303 -132 -46 -246 -90 -325
-127 -109 -50 -265 -127 -330 -164 -41 -23 -88 -49 -105 -57 -107 -56 -526
-346 -655 -453 -25 -21 -81 -68 -125 -105 -260 -217 -521 -502 -749 -817 -100
-138 -276 -401 -276 -413 0 -2 -12 -23 -26 -45 -31 -50 -91 -162 -152 -284
-146 -295 -247 -582 -347 -990 -128 -522 -160 -766 -159 -1210 0 -431 30 -656
153 -1170 189 -789 451 -1320 979 -1985 135 -170 452 -491 628 -637 190 -157
551 -413 722 -509 335 -191 626 -316 982 -423 328 -99 762 -189 1075 -223 160
-17 690 -17 855 0 559 60 1251 246 1700 459 63 29 124 59 134 65 11 5 51 27
90 48 288 153 645 400 936 648 422 360 886 963 1153 1497 172 346 275 643 386
1117 118 501 147 759 138 1212 -8 380 -34 581 -133 1009 -85 367 -178 665
-279 892 -7 17 -23 53 -35 80 -28 62 -119 244 -154 307 -14 26 -37 68 -51 92
-34 64 -218 343 -300 456 -305 422 -665 781 -1085 1085 -110 80 -395 267 -458
301 -23 13 -64 36 -90 50 -26 15 -94 50 -152 79 -94 47 -127 63 -235 110 -39
18 -243 96 -320 123 -111 39 -339 101 -530 146 -349 82 -539 114 -810 136
-110 9 -512 11 -630 3z m780 -647 c461 -56 865 -164 1265 -339 159 -69 381
-185 505 -261 27 -18 62 -38 77 -45 15 -8 37 -22 47 -33 11 -10 25 -18 31 -18
5 0 10 -4 10 -10 0 -5 4 -10 10 -10 8 0 137 -86 150 -100 3 -3 30 -24 60 -46
30 -23 65 -50 76 -60 12 -11 37 -31 55 -46 54 -42 99 -81 133 -111 73 -66 266
-259 321 -321 33 -37 71 -80 85 -96 14 -15 34 -40 45 -56 11 -15 31 -40 45
-55 14 -16 41 -50 60 -76 19 -26 37 -50 41 -53 10 -9 179 -258 179 -264 0 -3
20 -37 44 -75 140 -217 318 -610 409 -902 144 -461 207 -863 207 -1330 0 -395
-38 -710 -130 -1079 -46 -185 -146 -485 -204 -615 -8 -16 -26 -59 -42 -95 -82
-190 -290 -562 -384 -685 -20 -27 -46 -63 -56 -80 -21 -33 -19 -31 -96 -126
-29 -37 -66 -82 -81 -102 -64 -81 -109 -130 -277 -297 -155 -155 -217 -212
-308 -285 -30 -24 -101 -81 -124 -100 -9 -7 -54 -40 -100 -71 -46 -32 -84 -62
-86 -66 -2 -5 -10 -8 -18 -8 -8 0 -14 -4 -14 -10 0 -5 -6 -10 -14 -10 -8 0
-16 -4 -18 -8 -3 -9 -193 -125 -293 -180 -62 -34 -238 -120 -312 -153 -24 -11
-62 -28 -85 -39 -197 -90 -623 -217 -903 -269 -947 -175 -1936 -28 -2790 414
-274 142 -478 275 -729 475 -210 167 -476 431 -631 625 -21 28 -42 52 -45 55
-8 7 -112 148 -151 204 -436 623 -696 1340 -770 2121 -16 167 -16 583 0 750
54 569 197 1077 445 1575 71 141 120 233 147 272 11 14 19 31 19 37 0 6 5 11
10 11 6 0 10 4 10 10 0 20 229 353 285 414 6 6 28 34 50 61 22 28 44 55 50 61
5 7 37 42 70 79 135 152 350 358 490 470 28 22 52 42 55 45 36 36 373 270 389
270 6 0 11 5 11 10 0 6 4 10 10 10 5 0 33 15 62 33 111 71 303 168 488 250
400 175 868 296 1300 336 63 6 133 13 155 15 90 9 646 -4 760 -18z"/>
<path d="M4540 9490 c-305 -49 -726 -163 -905 -244 -27 -13 -61 -27 -75 -31
-50 -15 -337 -153 -450 -217 -30 -17 -69 -38 -86 -47 -16 -9 -76 -45 -132 -81
l-102 -65 752 -752 751 -751 -2 -2284 c-2 -2515 -6 -2361 59 -2541 102 -281
349 -500 647 -574 93 -23 313 -23 406 0 397 98 681 438 702 842 3 67 15 2037
15 2650 l0 79 458 -455 c252 -251 486 -476 522 -501 169 -119 350 -178 546
-178 481 0 869 364 901 846 14 211 -55 438 -186 613 -42 56 -3687 3712 -3699
3710 -4 -1 -59 -9 -122 -19z m755 -1425 c111 -29 198 -103 251 -211 25 -53 28
-70 29 -159 0 -91 -3 -106 -31 -165 -56 -119 -162 -199 -289 -219 -283 -44
-515 231 -424 501 67 200 261 305 464 253z m2441 -2436 c123 -22 230 -105 282
-217 24 -50 27 -69 27 -162 0 -96 -2 -110 -30 -163 -38 -76 -126 -158 -202
-188 -80 -32 -204 -32 -285 0 -80 31 -159 106 -200 189 -31 62 -33 74 -33 167
0 87 3 107 27 157 51 109 151 189 268 214 71 16 76 16 146 3z m-2388 -2511
c68 -25 163 -113 197 -181 72 -149 46 -323 -67 -439 -114 -117 -288 -148 -436
-78 -153 72 -245 248 -213 407 49 245 285 378 519 291z"/>
</g>
</svg>
